<mxfile host="app.diagrams.net" agent="Mozilla/5.0 (Macintosh; Intel Mac OS X 10_15_7) AppleWebKit/605.1.15 (KHTML, like Gecko) Version/18.3.1 Safari/605.1.15" version="26.2.13">
  <diagram name="Page-1" id="rRN35sN7C3EmRnp8cFpq">
    <mxGraphModel dx="1144" dy="997" grid="0" gridSize="10" guides="1" tooltips="1" connect="1" arrows="1" fold="1" page="0" pageScale="1" pageWidth="850" pageHeight="1100" math="0" shadow="0">
      <root>
        <mxCell id="0" />
        <mxCell id="1" parent="0" />
        <mxCell id="Tegr8HhTZtARoTGND7px-1" value="" style="shape=stencil(lVnbUhsxDP2avGps+f5M2/9ghlAypYQBevv7yg1OYmn3bHmDjc5adx9pd+Hm9eH2eb9j9/r2cvy2/3W4e3vYhU875sPTw/7l8CZ/7cLnXbi5P77sv74cfzzdnf5/vu2S/a/vx5/9Db9POO8p+45i9+f9CdX078GXk/zj4ela3pErWj6uyzfiOIlH8nVdvFJMk3ghB95eKOVZGUctrMtnikr5RAWok4hn54i13NblA7X5/V3/vC7PVMMkH5gasJfJuVm+UikgWto/MRID/4i8ilYjB+xl8rP+SfQH2RMozP5MiQLQJ5Gb0yFl8kCfQpG1/LvH1rJZ5VuK1MABXiKsThCbQAZ5SdE2A6TiUEp4CnPMkiOPciJpG2Klhk5oI8euAAxsCJFyMwAU5kY5GJVAnCUtQ9NGB5DY8r46V4JkHoqD/FzUCZEqA4Bk2lzLSbIL5WodjXMAsoPNS35W1Z8ZdiP5mefky4kyOiGMMJ0BZ78tA+Job+f+y7BfiwJRAdLoOcsAaYizDaVSBrkkGpe5HqpUCLChOMpz4GqghACs07um0QeXAZHK3MZqoYIAmcqcrc3Be6H7pM4ApgSSr0ouzV5q0siA0eITfUKGrVtMTLPRDXcN0bgEDUBxaI28sqGM2K8BojMA0DWa6UsCqPiEytoG5yGgJeMl0Ga8c/pOF0TEOrWqAQX7tRYNaEAnAaj87qHBJ6guIE8Yu0k1psuTNYAzKsETqu73WzZIyZlQozurZ7MBFKyS9tJGpKumYz2ZsErZRNqhSJs7a7sgXNWAjZILbAA40sl0AXRR92w1ANTJegGZTuY3ACZwiGwsAjK2oZlcQmNYN1pFukGy0d1qAOhm74ELGrBRoh8E8CDCl+nNQbpeDXnofkAA1jSxhxqka2kjOc+ABHtlKaaowxgylwHJFLUfU84yQNjLXHIVD31FBozZ6JrHk2WK1Qa3OAMitEFIXFInCE0EXuo8dQ61ODqAXilEVK0ZhEMhxiTcuM5u7bQOqeT11S5uYHSCoVg5w2VAajoOwscRXZcBQ91ZoqQHXpLpWW1XZAjJCGAWCH3MAakRq5mCAmzfMWgCJPNuBSrJrBjVTsDBOWthGm2QJganbegA0Ppkoq71IyrJzG6NTmgvI/e4catDa4Soc6mPr2iT4/QqSiINhxrdxyQbM9Ao6m7f5eGqS7XunnkgL5ymY+IhBplqaPTG6sppQhnjhj5xLrUg7AwtSjXDDQznXNZrH85jflpZpaX5/YxXn3FMqFerzwj6Y9LTm2QUsjfrKyHDCih61guQCtcRm8vWGTI2PdxiXmGX4JvyanMj8qgYeXCzizzKNW8WPQ6vbXksyy7yEenPFLV/EEHwrAmCgz3dyntITq0+HjJHa68fO9D/9KeH3MDGy8P9js0HD0eWD3902ZSXPy5feO4Pj4+nD0TXv+svQvLo9DUpfP4L);lineShape=1;strokeColor=default;" vertex="1" parent="1">
          <mxGeometry x="51.73320538839653" y="-144.5423529052959" width="165.97838704847368" height="166.96989170474063" as="geometry" />
        </mxCell>
      </root>
    </mxGraphModel>
  </diagram>
</mxfile>
